<svg width="130" height="130" viewBox="0 0 130 130" fill="none" xmlns="http://www.w3.org/2000/svg">
<path d="M109.688 97.5C107.878 97.5083 106.093 97.9249 104.467 98.7187L86.9984 81.25H73.125V89.375H83.6306L98.7228 104.467C97.9285 106.093 97.5105 107.878 97.5 109.687C97.5 112.098 98.2148 114.454 99.554 116.459C100.893 118.463 102.797 120.025 105.024 120.947C107.251 121.87 109.701 122.111 112.065 121.641C114.429 121.171 116.601 120.01 118.305 118.305C120.01 116.601 121.171 114.429 121.641 112.065C122.111 109.701 121.87 107.251 120.947 105.024C120.025 102.797 118.463 100.893 116.459 99.554C114.454 98.2148 112.098 97.5 109.688 97.5ZM109.688 113.75C108.884 113.75 108.099 113.512 107.43 113.065C106.762 112.619 106.242 111.984 105.934 111.242C105.627 110.5 105.546 109.683 105.703 108.895C105.86 108.107 106.247 107.383 106.815 106.815C107.383 106.247 108.107 105.86 108.895 105.703C109.683 105.546 110.5 105.627 111.242 105.934C111.984 106.242 112.619 106.762 113.065 107.43C113.512 108.099 113.75 108.884 113.75 109.687C113.75 110.765 113.322 111.798 112.56 112.56C111.798 113.322 110.765 113.75 109.688 113.75ZM109.688 52.8125C107.175 52.82 104.727 53.605 102.678 55.0598C100.63 56.5146 99.0822 58.5678 98.2475 60.9375H73.125V69.0625H98.2475C98.9959 71.1635 100.307 73.0184 102.039 74.4245C103.77 75.8305 105.855 76.7336 108.064 77.0352C110.274 77.3367 112.524 77.025 114.569 76.1341C116.614 75.2432 118.374 73.8075 119.658 71.9838C120.942 70.16 121.7 68.0185 121.849 65.7932C121.998 63.5678 121.533 61.3443 120.504 59.3656C119.475 57.3868 117.921 55.7291 116.014 54.5734C114.106 53.4177 111.918 52.8085 109.688 52.8125ZM109.688 69.0625C108.884 69.0625 108.099 68.8242 107.43 68.3778C106.762 67.9315 106.242 67.297 105.934 66.5546C105.627 65.8123 105.546 64.9955 105.703 64.2074C105.86 63.4194 106.247 62.6955 106.815 62.1274C107.383 61.5592 108.107 61.1723 108.895 61.0156C109.683 60.8588 110.5 60.9393 111.242 61.2467C111.984 61.5542 112.619 62.0749 113.065 62.743C113.512 63.4111 113.75 64.1965 113.75 65C113.75 66.0774 113.322 67.1108 112.56 67.8726C111.798 68.6345 110.765 69.0625 109.688 69.0625ZM109.688 8.12501C106.456 8.12823 103.358 9.4133 101.073 11.6982C98.7883 13.9831 97.5032 17.0812 97.5 20.3125C97.5139 22.2587 97.999 24.1725 98.9138 25.8903L83.6713 40.625H73.125V48.75H86.9537L104.829 31.4763C106.489 32.2003 108.29 32.545 110.101 32.4852C111.911 32.4255 113.686 31.9627 115.295 31.1307C116.904 30.2986 118.307 29.1183 119.402 27.6755C120.498 26.2327 121.258 24.5638 121.627 22.7903C121.996 21.0168 121.965 19.1834 121.536 17.4234C121.107 15.6635 120.291 14.0213 119.147 12.6165C118.003 11.2117 116.561 10.0796 114.924 9.30263C113.288 8.52565 111.499 8.12335 109.688 8.12501ZM109.688 24.375C108.884 24.375 108.099 24.1367 107.43 23.6903C106.762 23.244 106.242 22.6095 105.934 21.8672C105.627 21.1248 105.546 20.308 105.703 19.5199C105.86 18.7319 106.247 18.008 106.815 17.4399C107.383 16.8717 108.107 16.4848 108.895 16.3281C109.683 16.1713 110.5 16.2518 111.242 16.5592C111.984 16.8667 112.619 17.3874 113.065 18.0555C113.512 18.7236 113.75 19.509 113.75 20.3125C113.75 21.3899 113.322 22.4233 112.56 23.1851C111.798 23.947 110.765 24.375 109.688 24.375Z" fill="#164D8E"/>
<path d="M73.125 24.375H81.25V16.25H73.125C70.8099 16.2577 68.5234 16.7631 66.4207 17.7317C64.3179 18.7004 62.4479 20.1098 60.9375 21.8644C59.4271 20.1098 57.5571 18.7004 55.4543 17.7317C53.3516 16.7631 51.0651 16.2577 48.75 16.25H44.6875C34.9938 16.2608 25.7003 20.1163 18.8458 26.9708C11.9913 33.8253 8.13575 43.1188 8.125 52.8125V77.1875C8.13575 86.8812 11.9913 96.1747 18.8458 103.029C25.7003 109.884 34.9938 113.739 44.6875 113.75H48.75C51.0651 113.742 53.3516 113.237 55.4543 112.268C57.5571 111.3 59.4271 109.89 60.9375 108.136C62.4479 109.89 64.3179 111.3 66.4207 112.268C68.5234 113.237 70.8099 113.742 73.125 113.75H81.25V105.625H73.125C70.9708 105.623 68.9054 104.766 67.3821 103.243C65.8589 101.72 65.0022 99.6542 65 97.5V32.5C65.0022 30.3458 65.8589 28.2804 67.3821 26.7571C68.9054 25.2339 70.9708 24.3772 73.125 24.375ZM48.75 105.625H44.6875C37.8562 105.613 31.2572 103.144 26.0958 98.6684C20.9344 94.1932 17.5551 88.0107 16.575 81.25H24.375V73.125H16.25V56.875H28.4375C31.6688 56.8718 34.7669 55.5867 37.0518 53.3018C39.3367 51.0169 40.6218 47.9188 40.625 44.6875V36.5625H32.5V44.6875C32.5 45.7649 32.072 46.7983 31.3101 47.5601C30.5483 48.322 29.5149 48.75 28.4375 48.75H16.575C17.5551 41.9893 20.9344 35.8068 26.0958 31.3316C31.2572 26.8564 37.8562 24.3872 44.6875 24.375H48.75C50.9042 24.3772 52.9696 25.2339 54.4929 26.7571C56.0161 28.2804 56.8728 30.3458 56.875 32.5V48.75H48.75V56.875H56.875V73.125H48.75C45.5187 73.1282 42.4206 74.4133 40.1357 76.6982C37.8508 78.9831 36.5657 82.0812 36.5625 85.3125V93.4375H44.6875V85.3125C44.6875 84.235 45.1155 83.2017 45.8774 82.4399C46.6392 81.678 47.6726 81.25 48.75 81.25H56.875V97.5C56.8728 99.6542 56.0161 101.72 54.4929 103.243C52.9696 104.766 50.9042 105.623 48.75 105.625Z" fill="#164D8E"/>
</svg>
