<svg width="130" height="130" viewBox="0 0 130 130" fill="none" xmlns="http://www.w3.org/2000/svg">
<path d="M65 52C71.8956 52 78.5088 49.2607 83.3848 44.3848C88.2607 39.5088 91 32.8956 91 26C91 19.1044 88.2607 12.4912 83.3848 7.61522C78.5088 2.73928 71.8956 0 65 0C58.1044 0 51.4912 2.73928 46.6152 7.61522C41.7393 12.4912 39 19.1044 39 26C39 32.8956 41.7393 39.5088 46.6152 44.3848C51.4912 49.2607 58.1044 52 65 52ZM22.75 71.5C27.0598 71.5 31.193 69.788 34.2405 66.7405C37.288 63.693 39 59.5598 39 55.25C39 50.9402 37.288 46.807 34.2405 43.7595C31.193 40.7121 27.0598 39 22.75 39C18.4402 39 14.307 40.7121 11.2595 43.7595C8.21205 46.807 6.5 50.9402 6.5 55.25C6.5 59.5598 8.21205 63.693 11.2595 66.7405C14.307 69.788 18.4402 71.5 22.75 71.5ZM123.5 55.25C123.5 59.5598 121.788 63.693 118.74 66.7405C115.693 69.788 111.56 71.5 107.25 71.5C102.94 71.5 98.807 69.788 95.7595 66.7405C92.7121 63.693 91 59.5598 91 55.25C91 50.9402 92.7121 46.807 95.7595 43.7595C98.807 40.7121 102.94 39 107.25 39C111.56 39 115.693 40.7121 118.74 43.7595C121.788 46.807 123.5 50.9402 123.5 55.25ZM65 58.5C73.6195 58.5 81.886 61.9241 87.981 68.019C94.0759 74.114 97.5 82.3805 97.5 91V130H32.5V91C32.5 82.3805 35.9241 74.114 42.019 68.019C48.114 61.9241 56.3805 58.5 65 58.5ZM19.5 91C19.5 86.4955 20.15 82.147 21.372 78.039L20.267 78.13C14.6957 78.7417 9.54631 81.3885 5.80621 85.5628C2.0661 89.7372 -0.00145443 95.1452 7.67635e-07 100.75V130H19.5V91ZM130 130V100.75C130.001 94.9544 127.789 89.377 123.818 85.1564C119.846 80.9357 114.413 78.39 108.628 78.039C109.844 82.147 110.5 86.4955 110.5 91V130H130Z" fill="#164D8E"/>
</svg>
