<svg width="195" height="30" viewBox="0 0 195 30" fill="none" xmlns="http://www.w3.org/2000/svg">
<path d="M191.367 0.000445361C190.556 -0.0142846 188.672 0.323755 185.527 2.90852C183.813 2.38247 181.989 2.12288 180.161 2.12288C178.151 2.12288 176.12 2.43632 174.225 3.07445C169.709 -0.708154 167.716 0.0670153 167.716 0.0670153C166.415 4.0625 167.219 7.02065 167.463 7.75532C165.934 9.78206 165 12.3701 165 15.5421C165 17.9367 165.222 20.0846 165.764 21.9517C165.794 22.0958 165.785 22.0636 165.835 22.187C165.955 22.5735 166.088 22.9487 166.237 23.311C166.288 23.4414 166.335 23.5379 166.335 23.5379C167.859 27.0271 170.865 29.2811 176.212 29.9887L184.299 30C190.002 29.3057 192.738 27.045 193.999 23.5323L194.079 23.3035C194.199 22.9487 194.303 22.5795 194.588 21.3367C194.873 20.0939 195 17.9415 195 15.5411C195 12.0985 193.947 9.34382 192.237 7.24811C192.536 6.06371 192.935 3.43337 191.838 0.0660553C191.838 0.0660553 191.684 0.00623536 191.367 0.000445361ZM184.994 12.634C186.311 12.6305 187.439 12.9081 188.285 13.9989V13.9999C189.345 15.3661 189.965 17.0156 189.965 18.7932C189.965 27.0929 185.618 27.3187 180.255 27.3187C174.892 27.3187 170.546 26.1686 170.546 18.7932C170.546 17.0274 171.157 15.3877 172.203 14.0271C173.949 11.7594 176.903 12.9602 180.255 12.9602C181.976 12.9599 183.592 12.6377 184.994 12.634ZM175.005 15.078C173.89 15.078 172.985 16.9302 172.985 19.2161C172.985 21.5023 173.889 23.3551 175.005 23.3551C176.121 23.3551 177.026 21.5023 177.026 19.2161C177.026 16.9306 176.121 15.0797 175.005 15.078ZM185.845 15.078C184.729 15.078 183.825 16.9302 183.825 19.2161C183.825 21.5023 184.729 23.3551 185.845 23.3551C186.961 23.3551 187.865 21.5023 187.865 19.2161C187.865 16.9306 186.961 15.0797 185.845 15.078Z" fill="black"/>
<path d="M14.9528 2.5C8.07887 2.5 2.5 8.36526 2.5 15.5921C2.5 22.8189 8.07887 28.6842 14.9528 28.6842C21.8268 28.6842 27.4057 22.8189 27.4057 15.5921C27.4057 8.36526 21.8268 2.5 14.9528 2.5ZM20.7309 11.4026C20.5442 13.4712 19.7347 18.4985 19.3238 20.8158C19.1494 21.7977 18.8008 22.1251 18.477 22.1643C17.7547 22.2298 17.2068 21.6668 16.5094 21.1824C15.4136 20.4231 14.7909 19.9518 13.7325 19.2186C12.4996 18.3676 13.2966 17.8963 14.0064 17.137C14.1932 16.9406 17.3811 13.8901 17.4434 13.6152C17.452 13.5735 17.4509 13.5303 17.44 13.4892C17.4292 13.4482 17.409 13.4105 17.3811 13.3795C17.3064 13.3141 17.2068 13.3403 17.1196 13.3533C17.0075 13.3795 15.2642 14.5971 11.8645 17.006C11.3664 17.3595 10.9181 17.5428 10.5196 17.5297C10.0713 17.5166 9.22453 17.2679 8.58943 17.0453C7.80491 16.7835 7.19472 16.6395 7.24453 16.1812C7.26943 15.9456 7.58075 15.7099 8.16604 15.4612C11.8023 13.7985 14.2181 12.6987 15.426 12.1751C18.8879 10.6564 19.5977 10.3945 20.0709 10.3945C20.1706 10.3945 20.4072 10.4207 20.5566 10.5516C20.6811 10.6564 20.7185 10.8004 20.7309 10.9051C20.7185 10.9837 20.7434 11.2193 20.7309 11.4026Z" fill="black"/>
<path d="M132.123 0H122.92C114.511 0 112.513 1.9995 112.513 10.3905V19.5945C112.513 28.0005 114.498 30 122.904 30H132.108C140.514 30 142.513 28.0155 142.513 19.6095V10.407C142.513 1.998 140.529 0 132.123 0ZM136.732 21.405H134.544C133.716 21.405 133.467 20.7345 131.982 19.2495C130.686 18 130.138 17.844 129.81 17.844C129.357 17.844 129.232 17.9685 129.232 18.594V20.562C129.232 21.0945 129.06 21.4065 127.669 21.4065C126.32 21.3158 125.011 20.9058 123.851 20.2103C122.691 19.5148 121.713 18.5536 120.997 17.406C119.298 15.291 118.116 12.8087 117.544 10.1565C117.544 9.828 117.669 9.531 118.294 9.531H120.483C121.045 9.531 121.248 9.7815 121.467 10.359C122.529 13.485 124.341 16.203 125.076 16.203C125.358 16.203 125.481 16.0785 125.481 15.375V12.156C125.388 10.6875 124.608 10.563 124.608 10.032C124.618 9.89194 124.682 9.7613 124.787 9.66777C124.892 9.57424 125.029 9.52518 125.169 9.531H128.607C129.076 9.531 129.232 9.765 129.232 10.3275V14.6715C129.232 15.141 129.435 15.297 129.576 15.297C129.858 15.297 130.075 15.141 130.591 14.625C131.7 13.2734 132.605 11.7676 133.279 10.155C133.348 9.9613 133.479 9.79546 133.651 9.68279C133.823 9.57012 134.027 9.51681 134.232 9.531H136.42C137.076 9.531 137.215 9.8595 137.076 10.3275C136.28 12.1101 135.296 13.8023 134.139 15.375C133.903 15.735 133.809 15.9225 134.139 16.344C134.356 16.6725 135.123 17.313 135.639 17.922C136.389 18.67 137.011 19.5353 137.482 20.484C137.67 21.093 137.356 21.405 136.732 21.405Z" fill="black"/>
<path d="M68.7038 0H81.3038C86.1038 0 90.0038 3.9 90.0038 8.7V21.3C90.0038 23.6074 89.0872 25.8203 87.4556 27.4518C85.824 29.0834 83.6112 30 81.3038 30H68.7038C63.9038 30 60.0038 26.1 60.0038 21.3V8.7C60.0038 6.39262 60.9204 4.17974 62.552 2.54817C64.1835 0.916605 66.3964 0 68.7038 0ZM68.4038 3C66.9716 3 65.5981 3.56893 64.5854 4.58162C63.5727 5.59432 63.0038 6.96783 63.0038 8.4V21.6C63.0038 24.585 65.4188 27 68.4038 27H81.6038C83.036 27 84.4095 26.4311 85.4222 25.4184C86.4349 24.4057 87.0038 23.0322 87.0038 21.6V8.4C87.0038 5.415 84.5888 3 81.6038 3H68.4038ZM82.8788 5.25C83.3761 5.25 83.853 5.44754 84.2046 5.79917C84.5562 6.15081 84.7538 6.62772 84.7538 7.125C84.7538 7.62228 84.5562 8.09919 84.2046 8.45083C83.853 8.80246 83.3761 9 82.8788 9C82.3815 9 81.9046 8.80246 81.553 8.45083C81.2013 8.09919 81.0038 7.62228 81.0038 7.125C81.0038 6.62772 81.2013 6.15081 81.553 5.79917C81.9046 5.44754 82.3815 5.25 82.8788 5.25ZM75.0038 7.5C76.9929 7.5 78.9006 8.29018 80.3071 9.6967C81.7136 11.1032 82.5038 13.0109 82.5038 15C82.5038 16.9891 81.7136 18.8968 80.3071 20.3033C78.9006 21.7098 76.9929 22.5 75.0038 22.5C73.0147 22.5 71.107 21.7098 69.7005 20.3033C68.294 18.8968 67.5038 16.9891 67.5038 15C67.5038 13.0109 68.294 11.1032 69.7005 9.6967C71.107 8.29018 73.0147 7.5 75.0038 7.5ZM75.0038 10.5C73.8103 10.5 72.6657 10.9741 71.8218 11.818C70.9779 12.6619 70.5038 13.8065 70.5038 15C70.5038 16.1935 70.9779 17.3381 71.8218 18.182C72.6657 19.0259 73.8103 19.5 75.0038 19.5C76.1973 19.5 77.3419 19.0259 78.1858 18.182C79.0297 17.3381 79.5038 16.1935 79.5038 15C79.5038 13.8065 79.0297 12.6619 78.1858 11.818C77.3419 10.9741 76.1973 10.5 75.0038 10.5Z" fill="black"/>
</svg>
