<svg width="66" height="60" viewBox="0 0 66 60" fill="none" xmlns="http://www.w3.org/2000/svg">
<path d="M11.8036 40.4218L30.9331 23.5158C31.3505 23.145 31.9139 22.937 32.501 22.937C33.0882 22.937 33.6516 23.145 34.069 23.5158L53.1985 40.4181C53.6185 40.7887 54.1837 40.9963 54.7725 40.9963C55.3614 40.9963 55.9266 40.7887 56.3466 40.4181C56.5534 40.2371 56.7177 40.0207 56.83 39.7817C56.9422 39.5427 57 39.286 57 39.0267C57 38.7673 56.9422 38.5106 56.83 38.2716C56.7177 38.0327 56.5534 37.8163 56.3466 37.6353L37.2212 20.7329C35.9614 19.6223 34.2665 19 32.501 19C30.7356 19 29.0407 19.6223 27.7809 20.7329L8.65551 37.6353C8.44808 37.8164 8.28319 38.033 8.1706 38.2723C8.05801 38.5116 8 38.7687 8 39.0285C8 39.2883 8.05801 39.5454 8.1706 39.7847C8.28319 40.0241 8.44808 40.2407 8.65551 40.4218C9.07548 40.7923 9.64075 41 10.2296 41C10.8184 41 11.3836 40.7923 11.8036 40.4218Z" fill="black"/>
</svg>
