<svg width="65" height="62" viewBox="0 0 65 62" fill="none" xmlns="http://www.w3.org/2000/svg">
<path d="M11.8927 41.9845L30.9023 24.4036C31.3171 24.018 31.877 23.8017 32.4604 23.8017C33.0439 23.8017 33.6038 24.018 34.0185 24.4036L53.0282 41.9807C53.4455 42.3661 54.0072 42.5821 54.5924 42.5821C55.1775 42.5821 55.7392 42.3661 56.1566 41.9807C56.3621 41.7925 56.5254 41.5674 56.6369 41.3189C56.7484 41.0704 56.8059 40.8035 56.8059 40.5338C56.8059 40.2641 56.7484 39.9971 56.6369 39.7486C56.5254 39.5001 56.3621 39.2751 56.1566 39.0868L37.151 21.5096C35.8991 20.3546 34.2148 19.7075 32.4604 19.7075C30.706 19.7075 29.0217 20.3546 27.7699 21.5096L8.76432 39.0868C8.55819 39.2751 8.39433 39.5004 8.28245 39.7492C8.17056 39.9981 8.11292 40.2655 8.11292 40.5357C8.11292 40.8058 8.17056 41.0732 8.28245 41.3221C8.39433 41.571 8.55819 41.7962 8.76432 41.9845C9.18166 42.3699 9.74338 42.5859 10.3285 42.5859C10.9136 42.5859 11.4754 42.3699 11.8927 41.9845Z" fill="black"/>
</svg>
