<svg width="65" height="68" viewBox="0 0 65 68" fill="none" xmlns="http://www.w3.org/2000/svg">
<path d="M11.726 45.3429L30.4651 26.1315C30.874 25.7102 31.4259 25.4739 32.001 25.4739C32.5762 25.4739 33.1281 25.7102 33.537 26.1315L52.2761 45.3387C52.6875 45.7599 53.2412 45.9958 53.818 45.9958C54.3948 45.9958 54.9485 45.7599 55.3599 45.3387C55.5625 45.133 55.7235 44.8871 55.8334 44.6156C55.9434 44.344 56 44.0523 56 43.7576C56 43.4629 55.9434 43.1711 55.8334 42.8996C55.7235 42.628 55.5625 42.3822 55.3599 42.1764L36.6248 22.9692C35.3908 21.7071 33.7305 21 32.001 21C30.2716 21 28.6113 21.7071 27.3772 22.9692L8.64213 42.1764C8.43894 42.3822 8.27741 42.6284 8.16712 42.9003C8.05683 43.1722 8 43.4645 8 43.7597C8 44.0549 8.05683 44.3471 8.16712 44.619C8.27741 44.891 8.43894 45.1371 8.64213 45.3429C9.05354 45.764 9.60726 46 10.1841 46C10.7609 46 11.3146 45.764 11.726 45.3429Z" fill="black"/>
</svg>
