<svg width="130" height="130" viewBox="0 0 130 130" fill="none" xmlns="http://www.w3.org/2000/svg">
<path d="M121.875 28.4375V60.9375C121.875 62.0149 121.447 63.0483 120.685 63.8101C119.923 64.572 118.89 65 117.812 65C116.735 65 115.702 64.572 114.94 63.8101C114.178 63.0483 113.75 62.0149 113.75 60.9375V38.2434L71.9367 80.0617C71.5594 80.4394 71.1113 80.7391 70.6181 80.9435C70.125 81.148 69.5963 81.2532 69.0624 81.2532C68.5286 81.2532 67.9999 81.148 67.5068 80.9435C67.0136 80.7391 66.5655 80.4394 66.1882 80.0617L48.7499 62.6184L15.0617 96.3117C14.2994 97.074 13.2655 97.5023 12.1874 97.5023C11.1094 97.5023 10.0755 97.074 9.31322 96.3117C8.55093 95.5494 8.12268 94.5155 8.12268 93.4375C8.12268 92.3595 8.55093 91.3256 9.31322 90.5633L45.8757 54.0008C46.253 53.6231 46.7011 53.3234 47.1942 53.119C47.6874 52.9145 48.2161 52.8093 48.7499 52.8093C49.2838 52.8093 49.8125 52.9145 50.3056 53.119C50.7988 53.3234 51.2469 53.6231 51.6242 54.0008L69.0624 71.4441L108.007 32.5H85.3125C84.235 32.5 83.2017 32.072 82.4398 31.3101C81.678 30.5483 81.25 29.5149 81.25 28.4375C81.25 27.3601 81.678 26.3267 82.4398 25.5649C83.2017 24.803 84.235 24.375 85.3125 24.375H117.812C118.89 24.375 119.923 24.803 120.685 25.5649C121.447 26.3267 121.875 27.3601 121.875 28.4375Z" fill="#164D8E"/>
</svg>
