<svg width="155" height="200" viewBox="0 0 155 200" fill="none" xmlns="http://www.w3.org/2000/svg">
<g clip-path="url(#clip0_95_152)">
<path fill-rule="evenodd" clip-rule="evenodd" d="M74.6727 179.133C74.6874 178.234 75.033 177.377 75.6338 176.751C76.2346 176.125 77.0416 175.781 77.8781 175.793C113.615 175.793 142.557 144.973 142.557 107.06V75.4267C142.557 37.5133 113.516 6.69333 77.8781 6.69333C42.2405 6.69333 13.1067 37.5133 13.1067 75.4267C13.0937 76.3273 12.7488 77.1855 12.1478 77.8129C11.5469 78.4404 10.7389 78.7858 9.90132 78.7733C9.06374 78.7858 8.25579 78.4404 7.65482 77.8129C7.05385 77.1855 6.70898 76.3273 6.69592 75.4267C6.78892 33.76 38.5639 0 77.7851 0C117.006 0 148.775 33.76 148.775 75.4267V107.053C148.775 148.72 116.907 182.48 77.7851 182.48C76.9617 182.473 76.1738 182.118 75.5915 181.492C75.0092 180.866 74.6792 180.019 74.6727 179.133Z" fill="#2FBCDD"/>
<path fill-rule="evenodd" clip-rule="evenodd" d="M67.9768 168.493C70.6244 165.714 74.1779 164.158 77.8782 164.158C81.5784 164.158 85.132 165.714 87.7796 168.493C89.0788 169.871 90.1105 171.512 90.8147 173.322C91.5189 175.132 91.8816 177.075 91.8816 179.037C91.8816 180.999 91.5189 182.941 90.8147 184.751C90.1105 186.561 89.0788 188.202 87.7796 189.58C85.132 192.36 81.5784 193.916 77.8782 193.916C74.1779 193.916 70.6244 192.36 67.9768 189.58C66.6775 188.202 65.6458 186.561 64.9416 184.751C64.2374 182.941 63.8748 180.999 63.8748 179.037C63.8748 177.075 64.2374 175.132 64.9416 173.322C65.6458 171.512 66.6775 169.871 67.9768 168.493ZM133.784 69.5466V112.933C133.784 115.873 136.047 118.307 138.874 118.307H149.91C151.246 118.316 152.53 117.755 153.483 116.748C154.436 115.741 154.979 114.37 154.994 112.933V69.5466C154.979 68.1103 154.436 66.7386 153.483 65.7316C152.53 64.7247 151.246 64.1644 149.91 64.1733H138.874C137.538 64.1644 136.253 64.7247 135.3 65.7316C134.348 66.7386 133.804 68.1103 133.79 69.5466H133.784ZM-2.55858e-05 69.5466V112.933C-2.55858e-05 115.873 2.26297 118.307 5.09017 118.307H16.1262C17.4621 118.316 18.7469 117.755 19.6996 116.748C20.6523 115.741 21.1954 114.37 21.2102 112.933V69.5466C21.1954 68.1103 20.6523 66.7386 19.6996 65.7316C18.7469 64.7247 17.4621 64.1644 16.1262 64.1733H5.08397C3.74702 64.1626 2.46062 64.7221 1.50655 65.7293C0.552476 66.7364 0.00850193 68.1091 -0.00622559 69.5466H-2.55858e-05Z" fill="#0696B6"/>
<path fill-rule="evenodd" clip-rule="evenodd" d="M72.788 173.56C74.1564 172.146 75.9805 171.357 77.8782 171.357C79.7758 171.357 81.5999 172.146 82.9684 173.56C83.6408 174.266 84.1752 175.11 84.54 176.041C84.9049 176.972 85.0928 177.973 85.0928 178.983C85.0928 179.994 84.9049 180.994 84.54 181.926C84.1752 182.857 83.6408 183.701 82.9684 184.407C81.5999 185.82 79.7758 186.61 77.8782 186.61C75.9805 186.61 74.1564 185.82 72.788 184.407C71.4734 182.955 70.7378 181.009 70.7378 178.983C70.7378 176.957 71.4734 175.011 72.788 173.56Z" fill="white"/>
</g>
<defs>
<clipPath id="clip0_95_152">
<rect width="155" height="200" fill="white"/>
</clipPath>
</defs>
</svg>
