<svg width="260" height="200" viewBox="0 0 260 200" fill="none" xmlns="http://www.w3.org/2000/svg">
<g clip-path="url(#clip0_95_156)">
<path fill-rule="evenodd" clip-rule="evenodd" d="M53.3812 168.487V159.096H53.5112C53.5112 158.835 53.3812 158.443 53.3812 158.174V33.0609C53.3812 29.7565 55.8512 27.2435 59.0687 27.2435H231.579C234.666 27.2435 237.266 29.8869 237.266 33.0696V158.174C237.266 158.574 237.266 158.835 237.136 159.104H237.258V168.496H53.3975L53.3812 168.487ZM28.1775 177.348V186.217H260V177.348H28.1775Z" fill="#0EA2C4"/>
<path fill-rule="evenodd" clip-rule="evenodd" d="M61.6687 37.0348V157.643L229.726 157.513V37.0435H61.6687V37.0348Z" fill="#DAF2F8"/>
<path fill-rule="evenodd" clip-rule="evenodd" d="M175.597 95.2174C172.997 95.2174 171.519 94.2956 170.779 93.5043C169.049 91.7826 168.797 90.0608 168.797 87.0261V12.4348C168.797 9.39128 169.041 7.66954 170.779 5.9478C172.137 4.76879 173.85 4.15979 175.597 4.23476H204.514C207.114 4.23476 208.593 5.1565 209.333 5.9478C211.063 7.66954 211.307 9.39128 211.307 12.4348V87.0261C211.307 89.9304 211.063 91.6522 209.333 93.5043C208.593 94.2956 207.106 95.2261 204.514 95.2261H175.589L175.597 95.2174Z" fill="white"/>
<path fill-rule="evenodd" clip-rule="evenodd" d="M187.208 79.7478C188.071 78.8578 189.223 78.3605 190.422 78.3605C191.62 78.3605 192.772 78.8578 193.635 79.7478C194.045 80.1791 194.37 80.6935 194.592 81.2608C194.815 81.8281 194.929 82.437 194.929 83.0522C194.929 83.6673 194.815 84.2762 194.592 84.8436C194.37 85.4109 194.045 85.9252 193.635 86.3565C192.772 87.2439 191.622 87.7396 190.426 87.7396C189.229 87.7396 188.079 87.2439 187.216 86.3565C186.807 85.9252 186.481 85.4109 186.259 84.8436C186.037 84.2762 185.922 83.6673 185.922 83.0522C185.922 82.437 186.037 81.8281 186.259 81.2608C186.481 80.6935 186.798 80.1791 187.208 79.7478Z" fill="#DAF2F8"/>
<path fill-rule="evenodd" clip-rule="evenodd" d="M117.894 106.861H8.28749C7.75942 106.85 7.23465 106.952 6.74338 107.16C6.25211 107.367 5.80404 107.677 5.42495 108.07C5.04587 108.464 4.74325 108.934 4.53453 109.453C4.3258 109.972 4.21508 110.53 4.20874 111.096V183.304C4.20874 185.687 6.06124 187.539 8.27937 187.539H118.016C118.543 187.548 119.068 187.446 119.558 187.238C120.049 187.03 120.497 186.721 120.876 186.327C121.255 185.934 121.557 185.464 121.766 184.946C121.976 184.427 122.087 183.869 122.094 183.304V111.096C122.094 108.843 120.242 106.861 117.894 106.861Z" fill="white"/>
<path fill-rule="evenodd" clip-rule="evenodd" d="M13.845 145.739C14.7077 144.852 15.8578 144.356 17.0544 144.356C18.2509 144.356 19.4011 144.852 20.2637 145.739C20.6735 146.17 20.9989 146.685 21.2211 147.252C21.4432 147.819 21.5576 148.428 21.5576 149.043C21.5576 149.659 21.4432 150.268 21.2211 150.835C20.9989 151.402 20.6735 151.917 20.2637 152.348C19.4011 153.235 18.2509 153.731 17.0544 153.731C15.8578 153.731 14.7077 153.235 13.845 152.348C13.4342 151.917 13.1079 151.403 12.8851 150.836C12.6624 150.268 12.5476 149.659 12.5476 149.043C12.5476 148.428 12.6624 147.819 12.8851 147.251C13.1079 146.684 13.4342 146.17 13.845 145.739Z" fill="#DAF2F8"/>
<path fill-rule="evenodd" clip-rule="evenodd" d="M0 183.304V111.096C0 106.33 3.705 102.496 8.27938 102.496H118.016C122.59 102.496 126.295 106.33 126.295 111.096V183.304C126.295 188.061 122.582 191.896 118.008 191.896H8.2875C3.71312 191.896 0.008125 188.07 0.008125 183.304H0ZM117.894 183.304V111.217H8.27125V183.304H117.878H117.894Z" fill="#0EA2C4"/>
<path fill-rule="evenodd" clip-rule="evenodd" d="M13.845 145.739C14.7077 144.852 15.8578 144.356 17.0544 144.356C18.2509 144.356 19.4011 144.852 20.2637 145.739C20.6735 146.17 20.9989 146.685 21.2211 147.252C21.4432 147.819 21.5576 148.428 21.5576 149.043C21.5576 149.659 21.4432 150.268 21.2211 150.835C20.9989 151.402 20.6735 151.917 20.2637 152.348C19.4011 153.235 18.2509 153.731 17.0544 153.731C15.8578 153.731 14.7077 153.235 13.845 152.348C13.4342 151.917 13.1079 151.403 12.8851 150.836C12.6624 150.268 12.5476 149.659 12.5476 149.043C12.5476 148.428 12.6624 147.819 12.8851 147.251C13.1079 146.684 13.4342 146.17 13.845 145.739Z" fill="#DAF2F8"/>
<path fill-rule="evenodd" clip-rule="evenodd" d="M204.506 99.5913H175.598C171.893 99.5913 169.423 98.1304 167.936 96.6783C164.97 93.6348 164.718 90.4609 164.718 87.1565V12.5652C164.718 9.26087 165.092 6.08696 167.936 3.04348C169.414 1.45217 171.893 0 175.598 0H204.514C208.219 0 210.689 1.45217 212.176 2.91304C215.142 5.95652 215.386 9 215.386 12.4348V87.0261C215.386 90.3304 215.02 93.5044 212.176 96.5478C210.811 98.1304 208.211 99.5913 204.506 99.5913ZM206.619 90.4609C206.984 90.0609 207.106 89.8 207.106 89.5391C207.312 88.7177 207.394 87.8665 207.35 87.0174V12.4348C207.394 11.5857 207.312 10.7344 207.106 9.91304C206.984 9.65217 206.984 9.39131 206.619 8.99131C206.619 8.99131 206.123 8.46957 204.636 8.46957H175.719C174.241 8.46957 173.745 8.99131 173.745 8.99131C173.371 9.39131 173.249 9.65218 173.249 9.92174C173.006 10.313 172.876 10.9739 172.876 12.4348V87.0261C172.876 88.4783 172.998 89.1391 173.119 89.5391C173.249 89.8 173.371 90.0609 173.745 90.4609C173.745 90.4609 174.233 90.9826 175.719 90.9826H204.636C206.123 90.9826 206.497 90.4609 206.619 90.4609Z" fill="#0EA2C4"/>
</g>
<defs>
<clipPath id="clip0_95_156">
<rect width="260" height="200" fill="white"/>
</clipPath>
</defs>
</svg>
