<svg width="210" height="230" viewBox="0 0 210 230" fill="none" xmlns="http://www.w3.org/2000/svg">
<g clip-path="url(#clip0_92_121)">
<path fill-rule="evenodd" clip-rule="evenodd" d="M18.69 128.397C39.0906 112.444 67.8221 117.099 82.8336 138.792C97.8443 160.485 93.4666 191.037 73.066 206.99C52.6645 222.942 23.933 218.288 8.92239 196.594C-6.08911 174.886 -1.71061 144.349 18.69 128.397Z" fill="#2AE8FF" fill-opacity="0.14"/>
<path fill-rule="evenodd" clip-rule="evenodd" d="M126.563 158.863C142.985 146.028 166.114 149.765 178.197 167.228C190.28 184.69 186.754 209.275 170.332 222.124C153.911 234.96 130.781 231.222 118.698 213.76C106.614 196.298 110.141 171.699 126.563 158.863Z" fill="#0AC1F9" fill-opacity="0.14"/>
<path fill-rule="evenodd" clip-rule="evenodd" d="M136.264 172.884C145.407 165.733 158.288 167.82 165.009 177.539C171.729 187.257 169.773 200.953 160.631 208.104C151.488 215.255 138.606 213.167 131.886 203.45C125.152 193.717 127.122 180.035 136.264 172.884Z" fill="#0AC1F9" fill-opacity="0.18"/>
<path fill-rule="evenodd" clip-rule="evenodd" d="M73.4912 99.8617C94.7704 83.2182 124.753 88.0705 140.416 110.695C156.066 133.319 151.502 165.197 130.222 181.841C108.943 198.484 78.9609 193.632 63.2975 171.008C47.635 148.369 52.199 116.506 73.4912 99.8617Z" fill="#0AC1F9" fill-opacity="0.18"/>
<path fill-rule="evenodd" clip-rule="evenodd" d="M114.918 43.7093C141.467 22.9472 178.875 29.0125 198.398 57.2366C217.921 85.4608 212.225 125.223 185.676 145.985C159.127 166.748 121.719 160.683 102.197 132.459C82.6735 104.235 88.3698 64.4714 114.918 43.7093Z" fill="#0AD7F9" fill-opacity="0.14"/>
<path fill-rule="evenodd" clip-rule="evenodd" d="M86.0536 118.029C97.8976 108.762 114.599 111.47 123.316 124.066C132.032 136.662 129.49 154.406 117.633 163.673C105.776 172.941 89.0881 170.232 80.3714 157.636C71.6686 145.04 74.2105 127.297 86.0536 118.029Z" fill="#0AC1F9"/>
<path fill-rule="evenodd" clip-rule="evenodd" d="M130.609 66.3763C145.394 54.8244 166.22 58.1965 177.093 73.9088C187.965 89.6221 184.798 111.767 170.013 123.319C155.228 134.871 134.401 131.5 123.529 115.786C112.656 100.073 115.824 77.9431 130.609 66.3763Z" fill="#0AD7F9" fill-opacity="0.19"/>
<path fill-rule="evenodd" clip-rule="evenodd" d="M24.3863 10.747C47.5143 -7.33587 80.0783 -2.06071 97.0856 22.5242C114.093 47.1101 109.129 81.7233 86.0134 99.8061C62.8976 117.888 30.3196 112.613 13.3131 88.0279C-3.69423 63.4429 1.26964 28.8288 24.3845 10.746L24.3863 10.747Z" fill="#0AC1F9" fill-opacity="0.14"/>
<path fill-rule="evenodd" clip-rule="evenodd" d="M38.0529 30.4797C50.9215 20.4079 69.0602 23.3571 78.5216 37.0384C87.997 50.7206 85.2285 70.0016 72.3607 80.0586C59.4921 90.1303 41.3534 87.1811 31.892 73.4999C22.4158 59.8176 25.172 40.5505 38.0529 30.4797Z" fill="#0AC1F9" fill-opacity="0.24"/>
<path fill-rule="evenodd" clip-rule="evenodd" d="M30.7335 145.802C42.0989 136.916 58.0948 139.512 66.451 151.585C74.809 163.659 72.3739 180.67 61.0085 189.556C49.644 198.442 33.6481 195.847 25.291 183.773C16.9339 171.699 19.3821 154.688 30.7335 145.802Z" fill="#2AE8FF" fill-opacity="0.25"/>
<path fill-rule="evenodd" clip-rule="evenodd" d="M42.7901 163.222C43.341 162.792 43.9666 162.481 44.6311 162.308C45.2956 162.134 45.9858 162.102 46.6622 162.212C47.3386 162.322 47.9878 162.572 48.5727 162.949C49.1575 163.325 49.6664 163.821 50.0701 164.406C50.8887 165.59 51.2319 167.069 51.0248 168.52C50.8178 169.971 50.0772 171.276 48.965 172.15C46.6497 173.97 43.3895 173.434 41.6859 170.965C41.2786 170.38 40.9841 169.715 40.8192 169.009C40.6543 168.304 40.6222 167.57 40.7247 166.851C40.8273 166.132 41.0625 165.442 41.4168 164.819C41.7712 164.196 42.2379 163.654 42.7901 163.222Z" fill="#E7FCFF"/>
<path fill-rule="evenodd" clip-rule="evenodd" d="M146.285 89.0434C149.292 86.6878 153.538 87.3796 155.76 90.5811C157.982 93.7825 157.33 98.2963 154.323 100.652C151.315 103.008 147.07 102.317 144.847 99.1143C142.625 95.9128 143.278 91.3991 146.285 89.0434Z" fill="#E2FBFF"/>
<path fill-rule="evenodd" clip-rule="evenodd" d="M51.7064 50.2123C52.3309 49.7253 53.0399 49.3735 53.7928 49.1773C54.5457 48.981 55.3278 48.944 56.0942 49.0685C56.8606 49.193 57.5964 49.4764 58.2593 49.9027C58.9222 50.3289 59.4994 50.8895 59.9576 51.5524C60.8846 52.8935 61.2733 54.5688 61.0389 56.2126C60.8045 57.8564 59.9659 59.3351 58.7064 60.3258C56.0849 62.3847 52.3854 61.7782 50.4551 58.9857C48.5126 56.2072 49.0849 52.2712 51.7064 50.2123Z" fill="#EDFBFF"/>
<path fill-rule="evenodd" clip-rule="evenodd" d="M145.966 186.904C146.861 186.206 147.98 185.914 149.078 186.091C150.176 186.268 151.163 186.901 151.821 187.849C153.192 189.824 152.793 192.617 150.93 194.084C150.035 194.781 148.915 195.074 147.817 194.897C146.719 194.719 145.732 194.087 145.074 193.139C143.703 191.149 144.103 188.357 145.966 186.904Z" fill="#E0F8FF"/>
<path fill-rule="evenodd" clip-rule="evenodd" d="M98.63 136.196C99.2046 135.747 99.8572 135.422 100.55 135.241C101.244 135.059 101.964 135.025 102.67 135.139C103.375 135.253 104.053 135.514 104.664 135.906C105.275 136.298 105.806 136.814 106.228 137.424C108.012 139.991 107.493 143.616 105.071 145.492C104.496 145.941 103.844 146.266 103.15 146.447C102.457 146.629 101.737 146.663 101.031 146.549C100.325 146.435 99.6473 146.175 99.0365 145.783C98.4257 145.391 97.8939 144.875 97.4715 144.265C97.0476 143.654 96.7414 142.961 96.5702 142.226C96.399 141.49 96.3663 140.725 96.4739 139.976C96.5815 139.227 96.8273 138.507 97.1972 137.859C97.5671 137.21 98.054 136.645 98.63 136.196Z" fill="#E0FCFF"/>
<path fill-rule="evenodd" clip-rule="evenodd" d="M105.549 56.5169C88.2892 61.243 70.0184 64.4157 52.3985 65.0232L45.0791 116.097C42.1654 150.767 56.9765 174.463 86.5331 189.02C118.818 184.479 139.604 166.551 146.525 132.529L153.843 81.4691C137.182 75.3055 120.72 66.4895 105.549 56.5178V56.5169Z" fill="#0AC1F9"/>
<path fill-rule="evenodd" clip-rule="evenodd" d="M45.0791 116.083L52.3985 65.0084C70.0315 64.4158 88.2892 61.2282 105.549 56.504C120.72 66.4756 137.182 75.2907 153.843 81.4414L146.524 132.501C146.272 133.744 145.997 134.98 145.699 136.211L96.0347 122.684L44.8262 119.891C44.8916 118.621 44.9759 117.351 45.0791 116.083Z" fill="#38D0FF"/>
<path fill-rule="evenodd" clip-rule="evenodd" d="M45.0791 116.083L52.3985 65.0084C70.0175 64.4158 88.263 61.2282 105.51 56.5179L96.0216 122.699L44.8262 119.891C44.8916 118.621 44.9759 117.351 45.0791 116.083Z" fill="#00BAF3"/>
<path fill-rule="evenodd" clip-rule="evenodd" d="M44.8262 119.891L96.0347 122.698L86.5331 189.006C58.0807 174.986 43.2827 152.488 44.8262 119.891Z" fill="#6DDDFF"/>
<path fill-rule="evenodd" clip-rule="evenodd" d="M44.8797 118.918C59.3058 118.594 73.6383 125.491 82.8336 138.778C93.254 153.828 94.318 173.166 87.185 188.907C86.9724 188.936 86.7598 188.964 86.5331 189.006C57.8016 174.845 42.9905 152.05 44.8797 118.918Z" fill="white" fill-opacity="0.17"/>
<path fill-rule="evenodd" clip-rule="evenodd" d="M126.563 158.863C130.768 155.577 135.399 153.377 140.19 152.22C134.015 165.394 124.726 174.929 112.59 181.163C114.559 172.517 119.297 164.533 126.563 158.863Z" fill="white" fill-opacity="0.14"/>
<path fill-rule="evenodd" clip-rule="evenodd" d="M69.0996 177.975C66.966 175.84 65.0196 173.503 63.2844 170.994C47.6341 148.369 52.199 116.506 73.4913 99.8617C94.7704 83.2183 124.753 88.0835 140.417 110.695C143.545 115.212 145.951 120.244 147.536 125.589L146.538 132.515C139.618 166.537 118.831 184.464 86.5463 189.006C79.9855 185.79 74.1703 182.108 69.0996 177.975Z" fill="white" fill-opacity="0.18"/>
<path fill-rule="evenodd" clip-rule="evenodd" d="M102.21 132.459C86.4002 109.609 87.1185 79.2128 102.05 57.449L105.564 56.5179C120.734 66.4895 137.196 75.3055 153.857 81.4553L146.538 132.515C144.635 141.839 141.707 149.949 137.781 156.903C123.995 153.772 111.206 145.464 102.21 132.459Z" fill="white" fill-opacity="0.14"/>
<path fill-rule="evenodd" clip-rule="evenodd" d="M80.3854 157.636C71.6686 145.04 74.2105 127.297 86.0536 118.029C97.8976 108.762 114.6 111.47 123.315 124.066C132.032 136.662 129.49 154.406 117.646 163.673C105.789 172.941 89.1012 170.232 80.3854 157.636Z" fill="white" fill-opacity="0.18"/>
<path fill-rule="evenodd" clip-rule="evenodd" d="M123.528 115.786C113.535 101.358 115.398 81.497 127.229 69.3951C135.931 74.0359 144.861 78.1267 153.857 81.4413L146.897 129.991C137.888 129.003 129.304 124.151 123.528 115.786Z" fill="white" fill-opacity="0.19"/>
<path fill-rule="evenodd" clip-rule="evenodd" d="M45.997 109.666L52.3985 65.0084C70.0315 64.4158 88.2893 61.2282 105.55 56.504C106.082 56.8564 106.614 57.194 107.146 57.5473C106.508 73.7252 99.2285 89.4672 86.0003 99.7913C74.0504 109.157 59.5578 112.26 45.997 109.666Z" fill="white" fill-opacity="0.14"/>
<path fill-rule="evenodd" clip-rule="evenodd" d="M49.4708 85.433L52.3985 65.0084C62.6719 64.656 73.1588 63.429 83.5389 61.5389C82.1415 68.7181 78.3353 75.3899 72.3476 80.0586C69.104 82.6062 65.3906 84.4014 61.4491 85.3274C57.5076 86.2533 53.4263 86.2893 49.4708 85.433Z" fill="white" fill-opacity="0.24"/>
<path fill-rule="evenodd" clip-rule="evenodd" d="M46.2639 140.527C53.9691 140.654 61.5274 144.476 66.4519 151.585C71.974 159.569 72.786 169.696 69.419 178.216C57.2687 168.398 49.4042 155.93 46.2639 140.527Z" fill="white" fill-opacity="0.26"/>
<path fill-rule="evenodd" clip-rule="evenodd" d="M144.847 99.1142C142.625 95.9128 143.278 91.399 146.285 89.0434C148.255 87.4918 150.756 87.2665 152.872 88.1828L150.889 102.02C149.731 102.128 148.567 101.917 147.508 101.408C146.45 100.899 145.533 100.109 144.847 99.1142ZM97.4715 144.265C95.6882 141.698 96.208 138.072 98.63 136.196C99.2046 135.747 99.8572 135.422 100.55 135.241C101.244 135.06 101.964 135.025 102.67 135.139C103.375 135.253 104.053 135.514 104.664 135.906C105.275 136.298 105.806 136.814 106.228 137.424C108.012 139.991 107.493 143.616 105.071 145.492C102.649 147.396 99.2547 146.832 97.4715 144.265Z" fill="white"/>
<path fill-rule="evenodd" clip-rule="evenodd" d="M43.7885 115.956L43.8016 115.871L51.121 64.8108C51.2146 64.1617 51.7335 63.6683 52.3591 63.6404C69.8714 63.0478 88.0372 59.8881 105.23 55.1777L106.228 55.3465C121.333 65.2764 137.714 74.0498 154.269 80.1569C154.855 80.3692 155.214 81.0036 155.122 81.6667L147.802 132.727L147.775 132.769L147.789 132.811C140.736 167.468 119.457 185.761 86.6932 190.374L85.9871 190.261C56.0052 175.479 40.8205 151.261 43.7885 115.956ZM145.26 132.261L152.42 82.3437L140.909 77.6324C132.618 73.9088 124.447 69.6204 116.529 64.9518L105.35 57.9702L92.708 61.0872C83.832 63.0339 74.809 64.5428 65.8394 65.46L53.5167 66.3058L46.3706 116.224L46.0381 122.444C45.4116 151.035 57.9346 171.431 81.7959 184.958L86.7457 187.567L92.2022 186.636C118.778 181.276 136.424 165.774 143.85 138.284L145.26 132.261Z" fill="#2B7396"/>
</g>
<defs>
<clipPath id="clip0_92_121">
<rect width="210" height="230" fill="white"/>
</clipPath>
</defs>
</svg>
